{"accessors": {"accessor_buffer_Plane_0": {"bufferView": "bufferView_buffer_Plane_0", "byteOffset": 0, "byteStride": 12, "componentType": 5126, "count": 24, "max": [1, 1, 0.130889], "min": [-1, -1, 0], "type": "VEC3"}, "accessor_buffer_Plane_1": {"bufferView": "bufferView_buffer_Plane_0", "byteOffset": 288, "byteStride": 12, "componentType": 5126, "count": 24, "max": [1, 1, 1], "min": [-1, -1, -1], "type": "VEC3"}, "accessor_buffer_Plane_2": {"bufferView": "bufferView_buffer_Plane_0", "byteOffset": 576, "byteStride": 8, "componentType": 5126, "count": 24, "max": [0.9999, 1], "min": [0, 9.9957e-05], "type": "VEC2"}, "accessor_buffer_Plane_3": {"bufferView": "bufferView_buffer_Plane_1", "byteOffset": 0, "byteStride": 2, "componentType": 5123, "count": 36, "max": [23], "min": [0], "type": "SCALAR"}}, "asset": {"profile": {"api": "WebGL", "version": "1.0.3"}, "version": "1.0"}, "bufferViews": {"bufferView_buffer_Plane_0": {"buffer": "buffer_combined", "byteLength": 768, "byteOffset": 0, "target": 34962}, "bufferView_buffer_Plane_1": {"buffer": "buffer_combined", "byteLength": 72, "byteOffset": 768, "target": 34963}}, "buffers": {"buffer_combined": {"byteLength": 840, "type": "arraybuffer", "uri": "buffer_combined.bin"}}, "cameras": {"camera_Camera": {"name": "Camera", "perspective": {"aspectRatio": 1.7036, "yfov": 0.50338, "zfar": 100, "znear": 0.1}, "type": "perspective"}}, "extensions": {"KHR_materials_common": {"lights": {"light_Lamp": {"name": "Lamp", "point": {"color": [1, 1, 1], "constantAttenuation": 1, "linearAttenuation": 0, "quadraticAttenuation": 0.0333334}, "type": "point"}}}}, "extensionsUsed": ["KHR_materials_common"], "images": {"image_Texture-Soccer-Field-600x375.jpg": {"uri": "data:image/png;base64,"}}, "materials": {"material_field": {"extensions": {"KHR_materials_common": {"technique": "PHONG", "values": {"ambient": [1, 1, 1, 1], "diffuse": "texture_Texture", "doubleSided": false, "emission": [0, 0, 0, 1], "shininess": 50, "specular": [0.5, 0.5, 0.5, 1], "transparency": 1, "transparent": false}}}, "name": "field"}}, "meshes": {"mesh_Plane": {"name": "Plane", "primitives": [{"attributes": {"NORMAL": "accessor_buffer_Plane_1", "POSITION": "accessor_buffer_Plane_0", "TEXCOORD_0": "accessor_buffer_Plane_2"}, "indices": "accessor_buffer_Plane_3", "material": "material_field", "mode": 4}]}}, "nodes": {"node_Camera": {"camera": "camera_Camera", "children": [], "matrix": [0.685921, 0.727676, 0, 0, -0.324013, 0.305421, 0.895396, 0, 0.651558, -0.61417, 0.445271, 0, 7.48113, -6.50764, 5.34367, 1], "name": "Camera"}, "node_Lamp": {"children": [], "extensions": {"KHR_materials_common": {"light": "light_Lamp"}}, "matrix": [-0.290865, 0.955171, -0.0551891, 0, -0.771101, -0.199883, 0.604525, 0, 0.566393, 0.218391, 0.794672, 0, 2.50932, -0.28955, 4.45307, 1], "name": "Lamp"}, "node_Plane": {"children": [], "matrix": [5.67673, 0, 0, 0, 0, 2.99102, 0, 0, 0, 0, 2.53338, 0, 0, 0, 0, 1], "meshes": ["mesh_Plane"], "name": "Plane"}, "node_scene_Scene_root": {"children": ["node_Plane", "node_Lamp", "node_Camera"], "matrix": [-1, 0, 0, 0, 0, 0, 1, 0, 0, 1, 0, 0, 0, 0, 0, 1], "name": "node_scene_Scene_root"}}, "samplers": {"sampler_default": {}}, "scene": "scene_Scene", "scenes": {"scene_Scene": {"extras": {"active_camera": "camera_Camera", "background_color": [0.0508761, 0.0508761, 0.0508761], "frames_per_second": 24}, "name": "Scene", "nodes": ["node_scene_Scene_root"]}}, "textures": {"texture_Texture": {"format": 6408, "internalFormat": 6408, "sampler": "sampler_default", "source": "image_Texture-Soccer-Field-600x375.jpg"}}}